mtllib p3.mtl
v 163.000793 122.002808 0.000000
v 163.706512 123.706650 0.000000
v 162.002701 123.000900 0.000000
v 179.859528 139.859665 0.000000
v 162.002701 157.997406 0.000000
v 225.997192 156.997498 0.000000
v 207.855911 139.640961 0.000000
v 224.997299 122.002808 0.000000
v 163.000793 122.002808 0.000000
v 162.002701 123.000900 0.000000
v 163.000793 122.002808 -30.000000
v 162.002701 123.000900 -30.000000
v 162.002701 123.000900 0.000000
v 162.002701 157.997406 0.000000
v 162.002701 123.000900 -30.000000
v 162.002701 157.997406 -30.000000
v 162.002701 157.997406 0.000000
v 225.997192 156.997498 0.000000
v 162.002701 157.997406 -30.000000
v 225.997192 156.997498 -30.000000
v 225.997192 156.997498 0.000000
v 224.997299 122.002808 0.000000
v 225.997192 156.997498 -30.000000
v 224.997299 122.002808 -30.000000
v 224.997299 122.002808 0.000000
v 163.000793 122.002808 0.000000
v 224.997299 122.002808 -30.000000
v 163.000793 122.002808 -30.000000
v 163.000793 122.002808 -30.000000
v 163.706512 123.706650 -30.000000
v 162.002701 123.000900 -30.000000
v 179.859528 139.859665 -30.000000
v 162.002701 157.997406 -30.000000
v 225.997192 156.997498 -30.000000
v 207.855911 139.640961 -30.000000
v 224.997299 122.002808 -30.000000
vt 0.015597 0.000000
vt 0.026624 0.047336
vt 0.000000 0.027729
vt 0.279037 0.496098
vt 0.000000 1.000000
vt 1.000000 0.972221
vt 0.716518 0.490022
vt 0.984375 0.000000
vt 1.000000 1.000000
vt 0.992850 1.000000
vt 1.000000 0.500000
vt 0.992850 0.500000
vt 0.992850 1.000000
vt 0.815577 1.000000
vt 0.992850 0.500000
vt 0.815577 0.500000
vt 0.815577 1.000000
vt 0.491376 1.000000
vt 0.815577 0.500000
vt 0.491376 0.500000
vt 0.491376 1.000000
vt 0.314040 1.000000
vt 0.491376 0.500000
vt 0.314040 0.500000
vt 0.314040 1.000000
vt 0.000000 1.000000
vt 0.314040 0.500000
vt 0.000000 0.500000
vt 0.015597 0.000000
vt 0.026624 0.047336
vt 0.000000 0.027729
vt 0.279037 0.496098
vt 0.000000 1.000000
vt 1.000000 0.972221
vt 0.716518 0.490022
vt 0.984375 0.000000
vn 0.000000 0.000000 1.000000
vn 0.000000 0.000000 1.000000
vn 0.000000 0.000000 1.000000
vn 0.000000 0.000000 1.000000
vn 0.000000 0.000000 1.000000
vn 0.000000 0.000000 1.000000
vn 0.000000 0.000000 1.000000
vn 0.000000 0.000000 1.000000
vn -0.707107 -0.707107 0.000000
vn -0.707107 -0.707107 0.000000
vn -0.707107 -0.707107 0.000000
vn -0.707107 -0.707107 0.000000
vn -1.000000 0.000000 0.000000
vn -1.000000 0.000000 0.000000
vn -1.000000 0.000000 0.000000
vn -1.000000 0.000000 0.000000
vn 0.015623 0.999878 0.000000
vn 0.015623 0.999878 0.000000
vn 0.015623 0.999878 0.000000
vn 0.015623 0.999878 0.000000
vn 0.999592 -0.028561 0.000000
vn 0.999592 -0.028561 0.000000
vn 0.999592 -0.028561 0.000000
vn 0.999592 -0.028561 0.000000
vn 0.000000 -1.000000 0.000000
vn 0.000000 -1.000000 0.000000
vn 0.000000 -1.000000 0.000000
vn 0.000000 -1.000000 0.000000
vn 0.000000 0.000000 -1.000000
vn 0.000000 0.000000 -1.000000
vn 0.000000 0.000000 -1.000000
vn 0.000000 0.000000 -1.000000
vn 0.000000 0.000000 -1.000000
vn 0.000000 0.000000 -1.000000
vn 0.000000 0.000000 -1.000000
vn 0.000000 0.000000 -1.000000
usemtl Background copy Front Inflation Material
f 4/4/4 5/5/5 2/2/2
f 6/6/6 5/5/5 7/7/7
f 8/8/8 6/6/6 7/7/7
f 4/4/4 2/2/2 8/8/8
f 3/3/3 2/2/2 5/5/5
f 3/3/3 1/1/1 2/2/2
f 4/4/4 7/7/7 5/5/5
f 7/7/7 4/4/4 8/8/8
f 1/1/1 8/8/8 2/2/2
usemtl Background copy Front Bevel Material
f 1/1/1 1/1/1 1/1/1
usemtl Background copy Extrusion Material
f 19/19/19 18/18/18 20/20/20
f 11/11/11 9/9/9 10/10/10
f 11/11/11 10/10/10 12/12/12
f 15/15/15 13/13/13 14/14/14
f 15/15/15 14/14/14 16/16/16
f 19/19/19 17/17/17 18/18/18
f 23/23/23 21/21/21 22/22/22
f 23/23/23 22/22/22 24/24/24
f 27/27/27 25/25/25 26/26/26
f 27/27/27 26/26/26 28/28/28
usemtl Background copy Back Bevel Material
f 1/1/1 1/1/1 1/1/1
usemtl Background copy Back Inflation Material
f 29/29/29 31/31/31 30/30/30
f 33/33/33 32/32/32 30/30/30
f 33/33/33 34/34/34 35/35/35
f 34/34/34 36/36/36 35/35/35
f 30/30/30 32/32/32 36/36/36
f 30/30/30 31/31/31 33/33/33
f 35/35/35 32/32/32 33/33/33
f 32/32/32 35/35/35 36/36/36
f 36/36/36 29/29/29 30/30/30
