mtllib p8.mtl
v 424.499481 139.499802 0.000000
v 407.002502 122.002808 0.000000
v 407.002502 157.997406 0.000000
v 424.499847 140.500046 0.000000
v 441.997192 157.997406 0.000000
v 441.997192 122.002808 0.000000
v 407.002502 122.002808 0.000000
v 407.002502 157.997406 0.000000
v 407.002502 122.002808 -30.000000
v 407.002502 157.997406 -30.000000
v 407.002502 157.997406 0.000000
v 441.997192 157.997406 0.000000
v 407.002502 157.997406 -30.000000
v 441.997192 157.997406 -30.000000
v 441.997192 157.997406 0.000000
v 441.997192 122.002808 0.000000
v 441.997192 157.997406 -30.000000
v 441.997192 122.002808 -30.000000
v 441.997192 122.002808 0.000000
v 407.002502 122.002808 0.000000
v 441.997192 122.002808 -30.000000
v 407.002502 122.002808 -30.000000
v 424.499481 139.499802 -30.000000
v 407.002502 122.002808 -30.000000
v 407.002502 157.997406 -30.000000
v 424.499847 140.500046 -30.000000
v 441.997192 157.997406 -30.000000
v 441.997192 122.002808 -30.000000
vt 0.499990 0.486101
vt 0.000000 0.000000
vt 0.000000 1.000000
vt 0.500000 0.513889
vt 1.000000 1.000000
vt 1.000000 0.000000
vt 1.000000 1.000000
vt 0.746479 1.000000
vt 1.000000 0.500000
vt 0.746479 0.500000
vt 0.746479 1.000000
vt 0.500000 1.000000
vt 0.746479 0.500000
vt 0.500000 0.500000
vt 0.500000 1.000000
vt 0.246479 1.000000
vt 0.500000 0.500000
vt 0.246479 0.500000
vt 0.246479 1.000000
vt 0.000000 1.000000
vt 0.246479 0.500000
vt 0.000000 0.500000
vt 0.499990 0.486101
vt 0.000000 0.000000
vt 0.000000 1.000000
vt 0.500000 0.513889
vt 1.000000 1.000000
vt 1.000000 0.000000
vn 0.000000 0.000000 1.000000
vn 0.000000 0.000000 1.000000
vn 0.000000 0.000000 1.000000
vn 0.000000 0.000000 1.000000
vn 0.000000 0.000000 1.000000
vn 0.000000 0.000000 1.000000
vn -1.000000 0.000000 0.000000
vn -1.000000 0.000000 0.000000
vn -1.000000 0.000000 0.000000
vn -1.000000 0.000000 0.000000
vn 0.000000 1.000000 0.000000
vn 0.000000 1.000000 0.000000
vn 0.000000 1.000000 0.000000
vn 0.000000 1.000000 0.000000
vn 1.000000 0.000000 0.000000
vn 1.000000 0.000000 0.000000
vn 1.000000 0.000000 0.000000
vn 1.000000 0.000000 0.000000
vn 0.000000 -1.000000 0.000000
vn 0.000000 -1.000000 0.000000
vn 0.000000 -1.000000 0.000000
vn 0.000000 -1.000000 0.000000
vn 0.000000 0.000000 -1.000000
vn 0.000000 0.000000 -1.000000
vn 0.000000 0.000000 -1.000000
vn 0.000000 0.000000 -1.000000
vn 0.000000 0.000000 -1.000000
vn 0.000000 0.000000 -1.000000
usemtl Background copy Front Inflation Material
f 4/4/4 3/3/3 1/1/1
f 2/2/2 6/6/6 1/1/1
f 2/2/2 1/1/1 3/3/3
f 1/1/1 6/6/6 4/4/4
f 5/5/5 4/4/4 6/6/6
f 5/5/5 3/3/3 4/4/4
usemtl Background copy Front Bevel Material
f 1/1/1 1/1/1 1/1/1
usemtl Background copy Extrusion Material
f 21/21/21 20/20/20 22/22/22
f 17/17/17 15/15/15 16/16/16
f 9/9/9 7/7/7 8/8/8
f 9/9/9 8/8/8 10/10/10
f 13/13/13 11/11/11 12/12/12
f 13/13/13 12/12/12 14/14/14
f 17/17/17 16/16/16 18/18/18
f 21/21/21 19/19/19 20/20/20
usemtl Background copy Back Bevel Material
f 1/1/1 1/1/1 1/1/1
usemtl Background copy Back Inflation Material
f 25/25/25 26/26/26 23/23/23
f 25/25/25 27/27/27 26/26/26
f 28/28/28 24/24/24 23/23/23
f 23/23/23 24/24/24 25/25/25
f 26/26/26 27/27/27 28/28/28
f 28/28/28 23/23/23 26/26/26
